<svg width="18" height="18" viewBox="0 0 18 18" fill="none" xmlns="http://www.w3.org/2000/svg">
<path fill-rule="evenodd" clip-rule="evenodd" d="M10.4216 6.37567C10.4216 8.23656 8.89882 9.72783 6.99862 9.72783C5.09911 9.72783 3.57564 8.23656 3.57564 6.37567C3.57564 4.51479 5.09911 3.02351 6.99862 3.02351C8.89882 3.02351 10.4216 4.51479 10.4216 6.37567ZM1.82558 13.5235C1.82558 11.8009 4.20858 11.3699 6.99861 11.3699C9.8038 11.3699 12.1717 11.8158 12.1717 13.5397C12.1717 15.2623 9.78865 15.6933 6.99861 15.6933C4.19342 15.6933 1.82558 15.2475 1.82558 13.5235ZM11.8019 6.43644C11.8019 7.38408 11.5113 8.26833 11.0016 9.00283C10.9486 9.07837 10.9954 9.18022 11.0877 9.19641C11.2158 9.21732 11.3474 9.23013 11.4817 9.23283C12.8178 9.26723 14.0169 8.42481 14.3482 7.15611C14.8392 5.27364 13.3984 3.5834 11.563 3.5834C11.3639 3.5834 11.1731 3.60363 10.9872 3.64073C10.9617 3.64612 10.9341 3.65826 10.9204 3.67985C10.9025 3.7075 10.9155 3.74325 10.9335 3.76685C11.4851 4.52429 11.8019 5.44631 11.8019 6.43644ZM14.0148 10.5566C14.9129 10.7286 15.5032 11.0787 15.7477 11.5893C15.955 12.0074 15.955 12.4931 15.7477 12.9112C15.3737 13.7017 14.167 13.956 13.698 14.0214C13.6009 14.0349 13.5231 13.954 13.5334 13.8582C13.7731 11.6675 11.8674 10.6288 11.3742 10.39C11.3536 10.3786 11.3488 10.3624 11.3508 10.3516C11.3522 10.3448 11.3612 10.3341 11.377 10.332C12.4438 10.3118 13.5913 10.4555 14.0148 10.5566Z" fill="#00B7FE"/>
</svg>
