<svg width="15" height="14" viewBox="0 0 15 14" fill="none" xmlns="http://www.w3.org/2000/svg">
<path fill-rule="evenodd" clip-rule="evenodd" d="M4.53591 1.08735C4.65288 1.17179 4.84152 1.36575 4.84152 1.36575C5.57385 2.05212 6.67688 3.75928 7.0311 4.6254C7.03851 4.6254 7.24857 5.14039 7.25681 5.38535V5.41795C7.25681 5.79333 7.04675 6.14446 6.70901 6.3242C6.56977 6.39831 6.23112 6.46722 6.06773 6.50047C6.01361 6.51149 5.97873 6.51859 5.97668 6.52067C5.49395 6.59424 4.75338 6.64272 3.94032 6.64272C3.0869 6.64272 2.31421 6.59424 1.83889 6.50395C1.83065 6.50395 1.39653 6.41449 1.25155 6.35681C1.04231 6.26735 0.865199 6.10349 0.752343 5.8995C0.671613 5.73648 0.632072 5.56426 0.632072 5.38535C0.639486 5.19724 0.76058 4.84611 0.816596 4.70733C1.17082 3.79189 2.32986 2.04376 3.0383 1.37411C3.11189 1.29942 3.19564 1.22118 3.25391 1.16674C3.28501 1.13769 3.30885 1.11542 3.32003 1.10407C3.49714 0.965294 3.71461 0.891724 3.94856 0.891724C4.15697 0.891724 4.36621 0.956933 4.53591 1.08735ZM12.055 5.93275C12.055 6.30144 11.761 6.59991 11.3977 6.59991C11.0344 6.59991 10.7403 6.30144 10.7403 5.93275L10.5591 2.70981C10.5591 2.23996 10.9347 1.85956 11.3977 1.85956C11.8606 1.85956 12.2355 2.23996 12.2355 2.70981L12.055 5.93275ZM14.0902 8.09634C14.2994 8.18663 14.4765 8.34966 14.5894 8.55365C14.6701 8.71668 14.7096 8.88891 14.7096 9.06865C14.7022 9.25593 14.5811 9.6079 14.5243 9.74668C14.1709 10.6613 13.011 12.4095 12.3034 13.08C12.2311 13.1529 12.1489 13.2295 12.0908 13.2838L12.0907 13.2838L12.0907 13.2838C12.0582 13.3142 12.0332 13.3375 12.0217 13.3492C11.8438 13.488 11.6271 13.5615 11.394 13.5615C11.1839 13.5615 10.9747 13.4963 10.8058 13.3651C10.6888 13.2815 10.5002 13.0875 10.5002 13.0875C9.76703 12.4019 8.66483 10.6939 8.31061 9.82778C8.30238 9.82778 8.09314 9.31361 8.0849 9.06865V9.03605C8.0849 8.65983 8.29414 8.30869 8.63271 8.12894C8.77166 8.05561 9.10924 7.98651 9.273 7.95299C9.32767 7.94179 9.36297 7.93457 9.36504 7.93247C9.84776 7.8589 10.5883 7.81041 11.4014 7.81041C12.2548 7.81041 13.0275 7.8589 13.5028 7.9492C13.5102 7.9492 13.9452 8.03865 14.0902 8.09634ZM3.94419 7.85346C3.58091 7.85346 3.28683 8.15192 3.28683 8.52061L3.1056 11.7435C3.1056 12.2133 3.48124 12.5937 3.94419 12.5937C4.40715 12.5937 4.78197 12.2133 4.78197 11.7435L4.60156 8.52061C4.60156 8.15192 4.30748 7.85346 3.94419 7.85346Z" fill="#551FFF"/>
</svg>
